<svg width="308" height="203" viewBox="0 0 308 203" fill="none" xmlns="http://www.w3.org/2000/svg">
<circle cx="260.891" cy="18.8905" r="13.9067" transform="rotate(161.352 260.891 18.8905)" stroke="white" stroke-width="2"/>
<path d="M37.7023 200.319L49.1087 202.116L44.9615 191.339L37.7023 200.319ZM46.4996 198.005C63.9682 190.507 84.8407 177.012 102.769 158.818C120.698 140.623 135.732 117.676 141.425 91.2663L139.47 90.8448C133.879 116.782 119.091 139.404 101.345 157.414C83.5978 175.424 62.9412 188.771 45.7107 196.167L46.4996 198.005ZM141.425 91.2663C142.968 84.1125 143.234 78.6081 142.47 74.5602C141.702 70.4928 139.866 67.7907 137.147 66.4954C134.471 65.2204 131.182 65.4281 127.74 66.6167C124.283 67.8106 120.541 70.0357 116.836 73.0058C109.426 78.9473 102.021 87.9874 97.2002 98.1828C92.3811 108.374 90.0962 119.826 93.1039 130.533L95.0294 129.992C92.195 119.902 94.3154 108.962 99.0083 99.0378C103.699 89.1178 110.913 80.3186 118.087 74.5662C121.675 71.6893 125.217 69.6038 128.393 68.5072C131.583 67.4054 134.276 67.3427 136.287 68.301C138.256 69.239 139.814 71.2741 140.504 74.9311C141.198 78.6078 140.986 83.8155 139.47 90.8448L141.425 91.2663ZM93.1039 130.533C94.605 135.877 97.0828 140.085 100.471 143.092C103.863 146.104 108.108 147.859 113.05 148.394C122.888 149.457 135.525 145.687 150.055 137.332C179.149 120.602 216.361 85.181 255.015 31.2645L253.39 30.0992C214.818 83.9007 177.804 119.068 149.058 135.598C134.667 143.873 122.48 147.401 113.265 146.405C108.679 145.91 104.84 144.297 101.798 141.597C98.7532 138.893 96.4492 135.047 95.0294 129.992L93.1039 130.533Z" fill="white"/>
</svg>
