<svg width="50" height="50" viewBox="0 0 50 50" fill="none" xmlns="http://www.w3.org/2000/svg">
<rect width="50" height="50" rx="25" fill="#672427"/>
<path d="M31 19H29C29 16.79 27.21 15 25 15C22.79 15 21 16.79 21 19H19C17.9 19 17 19.9 17 21V33C17 34.1 17.9 35 19 35H31C32.1 35 33 34.1 33 33V21C33 19.9 32.1 19 31 19ZM25 17C26.1 17 27 17.9 27 19H23C23 17.9 23.9 17 25 17ZM31 33H19V21H21V23C21 23.55 21.45 24 22 24C22.55 24 23 23.55 23 23V21H27V23C27 23.55 27.45 24 28 24C28.55 24 29 23.55 29 23V21H31V33Z" fill="white"/>
</svg>
