<svg width="406" height="343" viewBox="0 0 406 343" fill="none" xmlns="http://www.w3.org/2000/svg">
<path d="M116.874 124.375C77.3626 146.853 51.1111 175.766 50.5882 201.991C49.7508 243.991 115.223 263.191 196.824 244.875C278.425 226.559 345.255 177.663 346.092 135.664C346.93 93.6638 281.458 74.4641 199.857 92.78C189.95 95.0035 180.261 97.6778 170.882 100.736" stroke="white" stroke-width="1.67491"/>
<path d="M116.874 124.375L105.294 124.918L109.133 135.35L116.874 124.375ZM170.801 99.717C170.239 99.9004 169.819 100.505 169.863 101.068C169.908 101.63 170.4 101.938 170.962 101.754L170.801 99.717ZM199.836 93.8266C240.511 84.6967 277.117 84.9305 303.412 92.6415C329.766 100.37 345.477 115.5 345.071 135.893L347.114 135.434C347.545 113.827 330.939 98.3577 304.366 90.5652C277.734 82.7555 240.803 82.5474 199.877 91.7334L199.836 93.8266ZM345.071 135.893C344.664 156.285 328.206 178.636 301.305 198.318C274.464 217.956 237.521 234.698 196.845 243.828L196.803 245.921C237.729 236.735 275 219.872 302.184 199.983C329.308 180.138 346.683 157.042 347.114 135.434L345.071 135.893ZM196.845 243.828C156.169 252.958 119.564 252.724 93.2687 245.013C66.9144 237.285 51.203 222.154 51.6096 201.762L49.5668 202.22C49.136 223.828 65.7418 239.297 92.3145 247.089C118.946 254.899 155.878 255.107 196.803 245.921L196.845 243.828ZM51.6096 201.762C51.8444 189.985 57.4182 177.573 67.2915 165.368C77.1695 153.157 91.3092 141.211 108.531 130.45L107.818 128.672C90.4181 139.545 76.0064 151.69 65.8676 164.223C55.724 176.762 49.8155 189.748 49.5668 202.22L51.6096 201.762ZM170.962 101.754C180.308 98.7076 189.963 96.0426 199.836 93.8266L199.877 91.7334C189.937 93.9645 180.215 96.648 170.801 99.717L170.962 101.754Z" fill="white"/>
<path d="M212.526 82.6323C263.534 71.1833 308.239 74.3929 334.387 88.667" stroke="white" stroke-width="1.67491" stroke-linecap="round"/>
<path d="M199.182 254.947C112.671 274.365 43.2607 254.01 44.1485 209.484C44.4632 193.699 53.5699 176.996 69.0493 161.144" stroke="white" stroke-width="1.67491" stroke-linecap="round"/>
</svg>
