<svg width="97" height="34" viewBox="0 0 97 34" fill="none" xmlns="http://www.w3.org/2000/svg">
<g clip-path="url(#clip0_108_221)">
<path d="M15.3902 0.415543C8.19239 1.11016 2.17133 6.50426 0.68927 13.6007C-0.453811 19.0965 1.24823 24.7959 5.22827 28.776C7.51477 31.071 10.4531 32.6543 13.5865 33.3065C17.2109 34.0602 20.954 33.6029 24.2397 32.0022C27.6438 30.3423 30.3369 27.6495 31.9965 24.2455C35.0874 17.8943 33.7917 10.2473 28.7702 5.23402C25.256 1.71128 20.3273 -0.0587578 15.3902 0.415543ZM17.4819 6.8854C17.7019 7.13088 17.7189 7.24954 17.5835 7.54602C17.4564 7.8255 17.1687 7.94416 16.6268 7.94416C16.0087 7.94416 14.8737 8.14748 14.1625 8.39297C11.4948 9.30756 9.37797 11.4332 8.48887 14.0835C8.26005 14.7612 8.02307 16.1161 8.02307 16.7597C8.02307 17.2506 7.80275 17.5135 7.38795 17.5135C6.89665 17.5135 6.75283 17.2846 6.75283 16.5479C6.75283 15.2691 7.21013 13.4909 7.85375 12.2207C8.90367 10.1882 10.826 8.37597 12.9092 7.46986C13.7562 7.10572 14.9839 6.78408 15.8985 6.68242C16.9059 6.57192 17.2534 6.61442 17.4819 6.8854ZM8.45487 7.63068C8.66669 7.7915 8.80201 8.10498 8.73435 8.2998C8.70885 8.40146 8.44637 8.7571 8.15839 9.07874C6.30369 11.2044 5.29593 13.6347 5.16911 16.2854C5.11845 17.1575 5.10145 17.2255 4.88113 17.4455C4.58465 17.7501 4.34767 17.7419 4.03419 17.437C3.75471 17.1575 3.74621 17.0813 3.88187 15.8111C4.11035 13.4824 4.78797 11.5937 6.05821 9.6802C6.54951 8.93493 7.23529 8.08832 7.65043 7.70718C7.87891 7.50352 8.24305 7.46952 8.45487 7.63068ZM18.4981 11.1279C18.7691 11.1956 19.2941 11.3989 19.6667 11.5852C20.9455 12.2118 21.7921 13.0588 22.419 14.3375C22.8848 15.2776 23.0371 15.9379 23.0371 17.0052C23.0371 18.0721 22.8848 18.7327 22.419 19.6728C22.0039 20.5112 21.4623 21.2055 20.8271 21.7053C20.226 22.1878 19.1673 22.7216 18.439 22.9079C18.0918 22.9926 17.5584 23.0432 16.9994 23.0432C15.9325 23.0432 15.2719 22.8909 14.3318 22.4251C13.053 21.7985 12.2061 20.9515 11.5795 19.6728C11.1137 18.7327 10.9614 18.0724 10.9614 17.0052C10.9614 15.9382 11.1137 15.2776 11.5795 14.3375C12.3248 12.8303 13.5865 11.7294 15.1784 11.2126C16.161 10.8994 17.4649 10.8654 18.4981 11.1279ZM27.0257 16.4207C27.229 16.5815 27.2457 16.641 27.2457 17.2928C27.2457 19.5623 26.1362 22.2299 24.4934 23.9235C23.9936 24.4399 23.7229 24.4994 23.3924 24.1608C23.0453 23.8222 23.113 23.5257 23.6464 22.9242C25.0268 21.3745 25.8228 19.4946 25.9499 17.4706C25.9924 16.7508 26.0261 16.6067 26.1954 16.4374C26.4412 16.1919 26.7292 16.1919 27.0257 16.4207ZM29.8201 16.4207C30.1503 16.573 30.2434 16.912 30.1758 17.7501C29.9388 20.824 28.863 23.4577 26.9325 25.685C24.7647 28.183 21.6316 29.7922 18.2778 30.1309C17.0246 30.258 16.8723 30.241 16.6094 30.0207C16.3215 29.7667 16.2963 29.3516 16.5588 29.0976C16.7111 28.9453 16.8808 28.9031 17.7189 28.8521C20.7421 28.6488 23.2741 27.5057 25.3828 25.3885C27.5 23.2714 28.6601 20.7224 28.8464 17.7331C28.9055 16.776 28.9225 16.7168 29.1429 16.522C29.3968 16.302 29.5155 16.285 29.8201 16.4207Z" fill="white"/>
<path d="M16.2706 16.2765C16.0167 16.5304 15.9827 16.6151 15.9827 17.0047C15.9827 17.3944 16.0167 17.479 16.2706 17.733C16.5246 17.987 16.6093 18.021 16.9989 18.021C17.3886 18.021 17.4732 17.987 17.7272 17.733C17.9812 17.479 18.0152 17.3944 18.0152 17.0047C18.0152 16.6151 17.9812 16.5304 17.7272 16.2765C17.4732 16.0225 17.3886 15.9885 16.9989 15.9885C16.6096 15.9888 16.525 16.0225 16.2706 16.2765Z" fill="white"/>
</g>
<path d="M43.315 10.886L42.329 14.66L42.057 13.385C42.4537 13.385 42.7823 13.5097 43.043 13.759C43.3037 14.0083 43.434 14.3427 43.434 14.762C43.434 15.1813 43.3037 15.5213 43.043 15.782C42.7823 16.0313 42.4593 16.156 42.074 16.156C41.666 16.156 41.3317 16.0257 41.071 15.765C40.8103 15.5043 40.68 15.17 40.68 14.762C40.68 14.626 40.6857 14.5013 40.697 14.388C40.7197 14.2633 40.7593 14.116 40.816 13.946C40.8727 13.776 40.952 13.5607 41.054 13.3L41.955 10.886H43.315ZM49.5164 23.5L44.3144 11.6H46.7114L51.3524 22.361H49.9754L54.6674 11.6H56.8774L51.6924 23.5H49.5164ZM58.1332 23.5V11.6H60.3432V23.5H58.1332ZM63.5619 23.5V11.6H65.3809L72.8439 20.763H71.9429V11.6H74.1359V23.5H72.3169L64.8539 14.337H65.7549V23.5H63.5619ZM80.2486 23.5V18.791L80.7416 20.151L75.5736 11.6H77.9366L82.0846 18.485H80.7586L84.9406 11.6H87.1166L81.9486 20.151L82.4586 18.791V23.5H80.2486ZM88.4144 23.5V11.6H90.6244V21.63H96.8464V23.5H88.4144Z" fill="white"/>
<defs>
<clipPath id="clip0_108_221">
<rect width="34" height="34" fill="white"/>
</clipPath>
</defs>
</svg>
