<svg width="24" height="24" viewBox="0 0 24 24" fill="none" xmlns="http://www.w3.org/2000/svg">
<path d="M4.69994 10.875L11.2999 4.275C11.3999 4.175 11.5083 4.104 11.6249 4.062C11.7416 4.02 11.8666 3.99933 11.9999 4C12.1333 4 12.2583 4.021 12.3749 4.063C12.4916 4.105 12.5999 4.17567 12.6999 4.275L19.2999 10.875C19.4833 11.0583 19.5789 11.2877 19.5869 11.563C19.5949 11.8383 19.4993 12.0757 19.2999 12.275C19.1166 12.475 18.8873 12.5793 18.6119 12.588C18.3366 12.5967 18.0993 12.5007 17.8999 12.3L12.9999 7.4L12.9999 18.575C12.9999 18.8583 12.9039 19.096 12.7119 19.288C12.5199 19.48 12.2826 19.5757 11.9999 19.575C11.7166 19.575 11.4789 19.4793 11.2869 19.288C11.0949 19.0967 10.9993 18.859 10.9999 18.575L10.9999 7.4L6.09994 12.3C5.91661 12.4833 5.68327 12.5793 5.39994 12.588C5.1166 12.5967 4.88327 12.5007 4.69994 12.3C4.49994 12.1167 4.39994 11.8833 4.39994 11.6C4.39994 11.3167 4.49994 11.075 4.69994 10.875Z" fill="#853034"/>
</svg>
