<svg width="24" height="24" viewBox="0 0 24 24" fill="none" xmlns="http://www.w3.org/2000/svg">
<path fill-rule="evenodd" clip-rule="evenodd" d="M6.4 3.99998C6.4 3.7878 6.48429 3.58432 6.63432 3.43429C6.78435 3.28426 6.98783 3.19998 7.2 3.19998H16.8C17.0122 3.19998 17.2157 3.28426 17.3657 3.43429C17.5157 3.58432 17.6 3.7878 17.6 3.99998V20C17.6 20.2121 17.5157 20.4156 17.3657 20.5657C17.2157 20.7157 17.0122 20.8 16.8 20.8H7.2C6.98783 20.8 6.78435 20.7157 6.63432 20.5657C6.48429 20.4156 6.4 20.2121 6.4 20V3.99998ZM7.2 1.59998C6.56348 1.59998 5.95303 1.85283 5.50295 2.30292C5.05286 2.75301 4.8 3.36346 4.8 3.99998V20C4.8 20.6365 5.05286 21.2469 5.50295 21.697C5.95303 22.1471 6.56348 22.4 7.2 22.4H16.8C17.4365 22.4 18.047 22.1471 18.4971 21.697C18.9471 21.2469 19.2 20.6365 19.2 20V3.99998C19.2 3.36346 18.9471 2.75301 18.4971 2.30292C18.047 1.85283 17.4365 1.59998 16.8 1.59998H7.2ZM9.6 18.64C9.45148 18.64 9.30904 18.699 9.20402 18.804C9.099 18.909 9.04 19.0515 9.04 19.2C9.04 19.3485 9.099 19.4909 9.20402 19.596C9.30904 19.701 9.45148 19.76 9.6 19.76H14.4C14.5485 19.76 14.691 19.701 14.796 19.596C14.901 19.4909 14.96 19.3485 14.96 19.2C14.96 19.0515 14.901 18.909 14.796 18.804C14.691 18.699 14.5485 18.64 14.4 18.64H9.6Z" fill="white"/>
</svg>
